<?xml version="1.0" encoding="UTF-8"?>
<svg id="Layer_1" data-name="Layer 1" xmlns="http://www.w3.org/2000/svg" viewBox="0 0 65.05 66.81">
  <defs>
    <style>
      .cls-1 {
        fill: #99f9f9;
        fill-rule: evenodd;
        stroke-width: 0px;
      }
    </style>
  </defs>
  <path class="cls-1" d="M33.99,21.94c5.65,0,10.23,4.58,10.23,10.23s-4.58,10.23-10.23,10.23-10.23-4.58-10.23-10.23,4.58-10.23,10.23-10.23ZM39.13,6.32l.87,7.91c.83.28,1.65.62,2.43,1.01l6.2-4.98c2.88,1.92,5.35,4.39,7.27,7.27l-4.98,6.2c.39.79.73,1.6,1.01,2.43l7.91.87c.68,3.4.68,6.89,0,10.29l-7.91.87c-.28.83-.62,1.65-1.01,2.43l4.98,6.2c-1.92,2.88-4.39,5.35-7.27,7.27l-6.2-4.98c-.79.39-1.6.73-2.43,1.01l-.87,7.91c-3.4.68-6.89.68-10.29,0l-.87-7.91c-.83-.28-1.65-.62-2.43-1.01l-6.2,4.98c-2.88-1.92-5.35-4.39-7.27-7.27l4.98-6.2c-.39-.79-.73-1.6-1.01-2.43l-7.91-.87c-.68-3.4-.68-6.89,0-10.29l7.91-.87c.28-.83.62-1.65,1.01-2.43l-4.98-6.2c1.92-2.88,4.39-5.35,7.27-7.27l6.2,4.98c.79-.39,1.6-.73,2.43-1.01l.87-7.91c3.4-.68,6.89-.68,10.29,0Z"/>
</svg>