<?xml version="1.0" encoding="UTF-8" standalone="no"?>
<!DOCTYPE svg PUBLIC "-//W3C//DTD SVG 1.1//EN" "http://www.w3.org/Graphics/SVG/1.1/DTD/svg11.dtd">
<svg width="100%" height="100%" viewBox="0 0 425 320" version="1.1" xmlns="http://www.w3.org/2000/svg" xmlns:xlink="http://www.w3.org/1999/xlink" xml:space="preserve" xmlns:serif="http://www.serif.com/" style="fill-rule:evenodd;clip-rule:evenodd;stroke-linecap:round;stroke-linejoin:round;stroke-miterlimit:1.5;">
    <g transform="matrix(1,0,0,1,0,-524)">
        <g id="Artboard1" transform="matrix(1,0,0,1,298.911,-0.489709)">
            <rect x="-298.911" y="524.49" width="424.818" height="319.229" style="fill:none;"/>
            <g transform="matrix(0.762876,0,0,2.49311,-381.632,-401.936)">
                <g transform="matrix(1.88034,0,0,0.594953,-239.298,70.464)">
                    <path d="M474.121,515.146L474.121,713.658L191.075,713.658L191.075,515.146L257.257,515.499L277.344,539.183L384.659,539.585L406.065,516.606L474.121,515.146Z" style="fill:url(#_Linear1);stroke:rgb(90,150,137);stroke-width:2.08px;"/>
                </g>
                <g transform="matrix(0.915543,0,0,0.289684,-44.5122,-93.286)">
                    <path d="M172.25,1726.55L172.25,1616.74L227.773,1616.74L227.773,1632.65L188.157,1632.65L188.157,1726.55L172.25,1726.55Z" style="fill:rgb(90,150,137);"/>
                </g>
                <g transform="matrix(5.60608e-17,-0.289684,0.915543,1.7738e-17,-1367.01,547.246)">
                    <path d="M172.25,1672.27L172.25,1616.74L227.773,1616.74L227.773,1632.65L188.157,1632.65L188.157,1672.27L172.25,1672.27Z" style="fill:rgb(90,150,137);"/>
                </g>
                <g transform="matrix(-0.915543,-3.5476e-17,1.12122e-16,-0.289684,817.118,965.692)">
                    <path d="M172.25,1722.92L172.25,1616.74L227.773,1616.74L227.773,1632.65L188.157,1632.65L188.157,1722.92L172.25,1722.92Z" style="fill:rgb(90,150,137);"/>
                </g>
                <g transform="matrix(-1.68183e-16,0.289684,-0.915543,-5.3214e-17,2139.61,325.16)">
                    <path d="M172.25,1672.27L172.25,1616.74L227.773,1616.74L227.773,1632.65L188.157,1632.65L188.157,1672.27L172.25,1672.27Z" style="fill:rgb(90,150,137);"/>
                </g>
            </g>
        </g>
    </g>
    <defs>
        <linearGradient id="_Linear1" x1="0" y1="0" x2="1" y2="0" gradientUnits="userSpaceOnUse" gradientTransform="matrix(3.4671e-15,329.91,-56.6221,2.02012e-14,377.315,400.255)"><stop offset="0" style="stop-color:rgb(15,47,44);stop-opacity:0.34"/><stop offset="1" style="stop-color:rgb(74,128,124);stop-opacity:1"/></linearGradient>
    </defs>
</svg>
