<?xml version="1.0" encoding="UTF-8" standalone="no"?>
<!DOCTYPE svg PUBLIC "-//W3C//DTD SVG 1.1//EN" "http://www.w3.org/Graphics/SVG/1.1/DTD/svg11.dtd">
<svg width="100%" height="100%" viewBox="0 0 182 150" version="1.1" xmlns="http://www.w3.org/2000/svg" xmlns:xlink="http://www.w3.org/1999/xlink" xml:space="preserve" xmlns:serif="http://www.serif.com/" style="fill-rule:evenodd;clip-rule:evenodd;stroke-linejoin:round;stroke-miterlimit:2;">
    <g transform="matrix(1,0,0,1,0,-654.484)">
        <g id="ShipOne" transform="matrix(0.900292,0,0,0.890246,329.495,88.0219)">
            <rect x="-365.987" y="636.299" width="201.854" height="168.417" style="fill:none;"/>
            <g transform="matrix(0.505229,0,0,1.45592,-799.242,-294.842)">
                <g transform="matrix(1.77778,0,0,0.596472,-2220.35,-84.7395)">
                    <path d="M1839.66,1215.55L1927.3,1279.22L1893.82,1382.25L1785.5,1382.25L1752.02,1279.22L1839.66,1215.55Z" style="fill:rgb(35,92,42);"/>
                </g>
                <g transform="matrix(1.66122,0,0,0.525619,-2005.91,24.8453)">
                    <path d="M1839.66,1182.48L1927.3,1279.22L1893.82,1382.25L1785.5,1382.25L1752.02,1279.22L1839.66,1182.48Z" style="fill:rgb(0,255,30);"/>
                    <clipPath id="_clip1">
                        <path d="M1839.66,1182.48L1927.3,1279.22L1893.82,1382.25L1785.5,1382.25L1752.02,1279.22L1839.66,1182.48Z"/>
                    </clipPath>
                    <g clip-path="url(#_clip1)">
                        <g transform="matrix(1.07017,0,0,1.07017,-216.504,-47.2687)">
                            <path d="M1921.75,1132.91L1921.75,1357.58L2001.78,1357.58L2001.78,1216.48L1921.75,1132.91Z" style="fill:rgb(30,213,51);"/>
                        </g>
                    </g>
                </g>
                <g transform="matrix(1.66122,0,0,0.525619,-2005.91,24.7859)">
                    <path d="M1922.18,1273.58L1927.3,1279.22L1893.82,1382.25L1785.5,1382.25L1752.02,1279.22L1757.14,1273.58L1785.5,1375.85L1893.82,1375.85L1922.18,1273.58Z" style="fill:rgb(35,92,42);"/>
                </g>
                <g transform="matrix(0.732471,0,0,0.231758,-296.457,381.049)">
                    <path d="M1839.66,1182.48L1927.3,1279.22L1893.82,1382.25L1785.5,1382.25L1752.02,1279.22L1839.66,1182.48Z" style="fill:rgb(30,213,51);"/>
                    <clipPath id="_clip2">
                        <path d="M1839.66,1182.48L1927.3,1279.22L1893.82,1382.25L1785.5,1382.25L1752.02,1279.22L1839.66,1182.48Z"/>
                    </clipPath>
                    <g clip-path="url(#_clip2)">
                        <g transform="matrix(2.4271,0,0,2.4271,-2824.84,-1644.16)">
                            <path d="M1921.99,1128.71L1921.99,1267.36L1965.77,1255.62L1985.1,1185.56L1921.99,1128.71Z" style="fill:rgb(35,92,42);"/>
                        </g>
                    </g>
                </g>
                <g transform="matrix(0.230683,0,0,0.0729894,597.078,653.214)">
                    <path d="M1839.66,1182.48L1927.3,1279.22L1893.82,1382.25L1785.5,1382.25L1752.02,1279.22L1839.66,1182.48Z" style="fill:rgb(30,213,51);"/>
                    <clipPath id="_clip3">
                        <path d="M1839.66,1182.48L1927.3,1279.22L1893.82,1382.25L1785.5,1382.25L1752.02,1279.22L1839.66,1182.48Z"/>
                    </clipPath>
                    <g clip-path="url(#_clip3)">
                        <g transform="matrix(1,0,0,1,0,32.6673)">
                            <path d="M1839.66,1182.48L1927.3,1279.22L1893.82,1382.25L1785.5,1382.25L1752.02,1279.22L1839.66,1182.48Z" style="fill:rgb(35,92,42);"/>
                        </g>
                    </g>
                </g>
                <g transform="matrix(0.230683,0,0,0.0729894,660.627,653.214)">
                    <path d="M1839.66,1182.48L1927.3,1279.22L1893.82,1382.25L1785.5,1382.25L1752.02,1279.22L1839.66,1182.48Z" style="fill:rgb(0,255,30);"/>
                    <clipPath id="_clip4">
                        <path d="M1839.66,1182.48L1927.3,1279.22L1893.82,1382.25L1785.5,1382.25L1752.02,1279.22L1839.66,1182.48Z"/>
                    </clipPath>
                    <g clip-path="url(#_clip4)">
                        <g transform="matrix(1,0,0,1,0,32.6673)">
                            <path d="M1839.66,1182.48L1927.3,1279.22L1893.82,1382.25L1785.5,1382.25L1752.02,1279.22L1839.66,1182.48Z" style="fill:rgb(35,92,42);"/>
                        </g>
                    </g>
                </g>
                <g transform="matrix(-0.407034,-1.5772e-17,4.98473e-17,-0.128788,1799.84,889.88)">
                    <path d="M1839.66,1318.01L1927.3,1279.22L1893.82,1382.25L1785.5,1382.25L1752.02,1279.22L1839.66,1318.01Z" style="fill:rgb(30,213,51);"/>
                    <clipPath id="_clip5">
                        <path d="M1839.66,1318.01L1927.3,1279.22L1893.82,1382.25L1785.5,1382.25L1752.02,1279.22L1839.66,1318.01Z"/>
                    </clipPath>
                    <g clip-path="url(#_clip5)">
                        <g transform="matrix(-4.36764,5.34881e-16,-5.34881e-16,-4.36764,10233.6,6911.1)">
                            <path d="M1921.95,1262.51L1921.95,1288.55L1946.72,1291.86L1950.65,1263.53L1921.95,1262.51Z" style="fill:rgb(35,92,42);"/>
                        </g>
                    </g>
                </g>
                <g transform="matrix(-0.407034,-1.5772e-17,4.98473e-17,-0.128788,1799.84,903.977)">
                    <path d="M1839.66,1318.01L1927.3,1279.22L1893.82,1382.25L1785.5,1382.25L1752.02,1279.22L1839.66,1318.01Z" style="fill:rgb(30,213,51);"/>
                    <clipPath id="_clip6">
                        <path d="M1839.66,1318.01L1927.3,1279.22L1893.82,1382.25L1785.5,1382.25L1752.02,1279.22L1839.66,1318.01Z"/>
                    </clipPath>
                    <g clip-path="url(#_clip6)">
                        <g transform="matrix(-4.36764,5.34881e-16,-5.34881e-16,-4.36764,10233.6,6911.1)">
                            <path d="M1921.95,1262.51L1921.95,1288.55L1946.72,1291.86L1950.65,1263.53L1921.95,1262.51Z" style="fill:rgb(35,92,42);"/>
                        </g>
                    </g>
                </g>
                <g transform="matrix(1.77778,0,0,0.5625,-2365.57,0)">
                    <path d="M1842.03,1212.01L1845.35,1227.59L1914.48,1151.15L1842.03,1212.01Z" style="fill:rgb(157,181,37);"/>
                </g>
                <g transform="matrix(-1.77778,0,0,0.5625,4464.85,0)">
                    <path d="M1842.03,1212.01L1845.35,1227.59L1914.48,1151.15L1842.03,1212.01Z" style="fill:rgb(157,181,37);"/>
                </g>
            </g>
        </g>
    </g>
</svg>
