<?xml version="1.0" encoding="UTF-8" standalone="no"?>
<!DOCTYPE svg PUBLIC "-//W3C//DTD SVG 1.1//EN" "http://www.w3.org/Graphics/SVG/1.1/DTD/svg11.dtd">
<svg width="100%" height="100%" viewBox="0 0 182 150" version="1.1" xmlns="http://www.w3.org/2000/svg" xmlns:xlink="http://www.w3.org/1999/xlink" xml:space="preserve" xmlns:serif="http://www.serif.com/" style="fill-rule:evenodd;clip-rule:evenodd;stroke-linejoin:round;stroke-miterlimit:2;">
    <g transform="matrix(1,0,0,1,0,-654.484)">
        <g id="ShipOne" transform="matrix(0.900292,0,0,0.890246,329.495,88.0219)">
            <rect x="-365.987" y="636.299" width="201.854" height="168.417" style="fill:none;"/>
            <g transform="matrix(0.275465,0,0,0.30031,-534.988,548.905)">
                <g transform="matrix(1.22334,1.22334,-1.22334,1.22334,723.534,-819.763)">
                    <path d="M882.092,380.452L763.405,552.706L591.152,671.393L591.152,380.452L882.092,380.452Z" style="fill:rgb(0,255,30);"/>
                </g>
                <g transform="matrix(1.47461,1.47461,-1.47461,1.47461,669.3,-1136.56)">
                    <path d="M843.575,447.058L775.492,564.793L658.868,632.234L591.152,380.452L843.575,447.058Z" style="fill:rgb(0,255,30);"/>
                    <clipPath id="_clip1">
                        <path d="M843.575,447.058L775.492,564.793L658.868,632.234L591.152,380.452L843.575,447.058Z"/>
                    </clipPath>
                    <g clip-path="url(#_clip1)">
                        <g transform="matrix(0.707107,-0.707107,0.707107,0.707107,-217,908.033)">
                            <path d="M944.862,183.005L944.862,479.136L1077.6,438.122L944.862,183.005Z" style="fill:rgb(30,213,51);"/>
                        </g>
                        <g transform="matrix(0.707107,-0.707107,0.707107,0.707107,-219.849,905.184)">
                            <path d="M814.422,428.345L821.069,416.487L944.195,456.403L1069.28,416.549L1075.9,428.015L944.195,464.767L814.422,428.345Z" style="fill:rgb(0,158,19);"/>
                        </g>
                    </g>
                </g>
                <g transform="matrix(2.08541,0,0,2.2917,-968.464,-216.973)">
                    <g transform="matrix(0.166508,0.166508,-0.166508,0.166508,860.781,193.342)">
                        <path d="M843.575,447.058L775.492,564.793L658.868,632.234L591.152,380.452L843.575,447.058Z" style="fill:rgb(0,158,19);"/>
                    </g>
                    <g transform="matrix(0.166508,0.166508,-0.166508,0.166508,899.014,160.987)">
                        <path d="M784.33,387.813L835.352,621.242L599.622,572.988L367.887,153.777L784.33,387.813Z" style="fill:rgb(0,158,19);"/>
                    </g>
                    <g transform="matrix(0.115741,0.115741,-0.115741,0.115741,910.847,227.588)">
                        <path d="M784.33,387.813L831.193,625.401L599.622,572.988L363.728,157.936L411.287,180.544L784.33,387.813Z" style="fill:rgb(35,92,42);"/>
                    </g>
                    <g transform="matrix(0.166508,0.166508,-0.166508,0.166508,940.453,193.342)">
                        <path d="M843.575,447.058L775.492,564.793L658.868,632.234L591.152,380.452L843.575,447.058Z" style="fill:rgb(0,158,19);"/>
                    </g>
                </g>
                <g transform="matrix(2.08541,0,0,2.08541,-991.038,-127.436)">
                    <path d="M821.796,417.276L883.058,318.359L829.475,422.878L821.796,417.276Z" style="fill:rgb(0,158,19);"/>
                </g>
                <g transform="matrix(-2.08541,0,0,2.08541,2953.8,-127.436)">
                    <path d="M821.796,417.276L883.058,318.359L829.475,422.878L821.796,417.276Z" style="fill:rgb(0,158,19);"/>
                </g>
                <g transform="matrix(2.08541,0,0,2.08541,-989.681,-125.964)">
                    <path d="M774.472,407.956L821.259,416.589L882.175,318.319L774.472,407.956Z" style="fill:rgb(157,181,37);"/>
                </g>
                <g transform="matrix(2.08541,0,0,2.08541,-1060.93,-148.315)">
                    <path d="M808.902,418.55L916.265,329.467L819.624,420.747L808.902,418.55Z" style="fill:rgb(0,158,19);"/>
                </g>
                <g transform="matrix(2.08541,0,0,2.08541,-1060.93,-148.315)">
                    <path d="M808.902,418.55L916.265,329.467L819.624,420.747L808.902,418.55Z" style="fill:rgb(0,158,19);"/>
                </g>
                <g transform="matrix(-2.08541,0,0,2.08541,2952.44,-125.964)">
                    <path d="M774.465,407.981L821.259,416.589L882.175,318.319L774.465,407.981Z" style="fill:rgb(157,181,37);"/>
                </g>
                <g transform="matrix(-2.08541,0,0,2.08541,3024.16,-148.023)">
                    <path d="M808.902,418.55L916.265,329.467L819.55,420.504L808.902,418.55Z" style="fill:rgb(0,158,19);"/>
                </g>
            </g>
        </g>
    </g>
</svg>
