<?xml version="1.0" encoding="UTF-8" standalone="no"?>
<!DOCTYPE svg PUBLIC "-//W3C//DTD SVG 1.1//EN" "http://www.w3.org/Graphics/SVG/1.1/DTD/svg11.dtd">
<svg width="100%" height="100%" viewBox="0 0 182 150" version="1.1" xmlns="http://www.w3.org/2000/svg" xmlns:xlink="http://www.w3.org/1999/xlink" xml:space="preserve" xmlns:serif="http://www.serif.com/" style="fill-rule:evenodd;clip-rule:evenodd;stroke-linecap:round;stroke-linejoin:round;stroke-miterlimit:1.5;">
    <g transform="matrix(1,0,0,1,0,-654.484)">
        <g id="ShipOne" transform="matrix(0.900292,0,0,0.890246,329.495,88.0219)">
            <rect x="-365.987" y="636.299" width="201.854" height="168.417" style="fill:none;"/>
            <g transform="matrix(0.375314,0,0,1.17471,-644.212,268.814)">
                <g transform="matrix(0.61003,-0.193017,0.61003,0.193017,772.951,43.881)">
                    <rect x="-757.222" y="935.419" width="210.382" height="210.382" style="fill:rgb(0,255,30);"/>
                    <clipPath id="_clip1">
                        <rect x="-757.222" y="935.419" width="210.382" height="210.382"/>
                    </clipPath>
                    <g clip-path="url(#_clip1)">
                        <g transform="matrix(1.45712,1.45712,-1.45712,1.45712,-2458.76,-2686.1)">
                            <path d="M1897.81,588.156L1897.81,721.642L1997.63,648.317L1897.81,588.156Z" style="fill:rgb(30,213,51);"/>
                        </g>
                        <g transform="matrix(1,0,0,1,-35.493,35.493)">
                            <path d="M-526.862,915.441L-546.84,1145.8L-757.222,1145.8L-757.222,935.419L-526.862,915.441Z" style="fill:rgb(0,158,19);"/>
                        </g>
                        <g transform="matrix(0.409602,0,0,0.409602,-366.245,597.152)">
                            <path d="M-523.111,911.69L-546.84,1145.8L-811.351,1199.93L-757.222,935.419L-523.111,911.69Z" style="fill:rgb(35,92,42);"/>
                            <clipPath id="_clip2">
                                <path d="M-523.111,911.69L-546.84,1145.8L-811.351,1199.93L-757.222,935.419L-523.111,911.69Z"/>
                            </clipPath>
                            <g clip-path="url(#_clip2)">
                                <g transform="matrix(3.55742,3.55742,-3.55742,3.55742,-5109.41,-8010.14)">
                                    <path d="M1898.51,603.718L1898.51,694.499L1940.76,652.247L1898.51,603.718Z" style="fill:rgb(30,213,51);"/>
                                </g>
                            </g>
                        </g>
                    </g>
                    <rect x="-757.222" y="935.419" width="210.382" height="210.382" style="fill:none;stroke:rgb(94,177,104);stroke-width:1.45px;"/>
                </g>
                <g transform="matrix(1.25708,0.397748,-1.25708,0.397748,3137.78,212.216)">
                    <path d="M-591.298,958.846L-546.84,935.419L-546.84,1145.8L-757.222,1145.8L-733.795,1101.34L-614.724,1077.92L-591.298,958.846Z" style="fill:rgb(35,92,42);"/>
                    <clipPath id="_clip3">
                        <path d="M-591.298,958.846L-546.84,935.419L-546.84,1145.8L-757.222,1145.8L-733.795,1101.34L-614.724,1077.92L-591.298,958.846Z"/>
                    </clipPath>
                    <g clip-path="url(#_clip3)">
                        <g transform="matrix(1,0,0,1,-10.909,-10.909)">
                            <path d="M-614.724,935.419L-546.84,935.419L-546.84,1145.8L-757.222,1145.8L-757.222,1077.92L-614.724,1077.92L-614.724,935.419Z" style="fill:rgb(0,255,30);stroke:rgb(94,177,104);stroke-width:1.45px;"/>
                        </g>
                        <g transform="matrix(1,0,0,1,-39.3596,-39.3596)">
                            <path d="M-614.724,935.419L-533.767,948.491L-560.846,1127.46L-744.149,1158.87L-757.222,1077.92L-614.724,1077.92L-614.724,935.419Z" style="fill:rgb(35,92,42);stroke:rgb(94,177,104);stroke-width:1.45px;"/>
                        </g>
                        <g transform="matrix(0.707107,-0.707107,0.707107,0.707107,-2451.84,1929.26)">
                            <path d="M1904.01,715.544L1901.34,776.104L2038.99,638.613L2015.96,631.163L1904.01,715.544Z" style="fill:rgb(30,213,51);"/>
                        </g>
                    </g>
                </g>
            </g>
        </g>
    </g>
</svg>
