<?xml version="1.0" encoding="utf-8"?>
<!-- Generator: Adobe Illustrator 28.1.0, SVG Export Plug-In . SVG Version: 6.00 Build 0)  -->
<svg version="1.1" xmlns="http://www.w3.org/2000/svg" xmlns:xlink="http://www.w3.org/1999/xlink" x="0px" y="0px"
	 viewBox="0 0 11.28 11.17" style="enable-background:new 0 0 11.28 11.17;" xml:space="preserve">
<style type="text/css">
	.st0{fill:#171932;}
	.st1{fill:#6FFF21;}
	.st2{fill:none;stroke:#6FFF21;stroke-width:1.7596;stroke-miterlimit:10;}
	.st3{fill:#FFFFFF;}
	.st4{fill:none;stroke:#FFFFFF;stroke-width:2;stroke-miterlimit:10;}
	.st5{fill:none;stroke:#F38F1E;stroke-width:3;stroke-miterlimit:10;}
</style>
<g id="Layer_1">
</g>
<g id="Layer_2">
	<rect x="866.97" y="-966.17" class="st0" width="1920" height="1080"/>
	<g>
		<polygon class="st1" points="1713.74,-249 1734.79,-222.25 1762.26,-237.95 1759.76,-432.36 		"/>
		<polygon class="st1" points="1938.8,-243.37 1917.75,-216.62 1890.28,-232.31 1892.78,-426.73 		"/>
		<g>
			<polygon class="st2" points="1606.09,-290.71 1600.36,-245.75 1647.1,-210.91 1801.88,-287.41 1765.5,-505.88 			"/>
			<polygon class="st2" points="1779.89,-537.61 1828.28,-641.43 1873.15,-537.61 1828.28,-222.25 			"/>
		</g>
		<g>
			<polygon class="st2" points="2047.84,-290.71 2053.57,-245.75 2006.83,-210.91 1852.06,-287.41 1888.44,-505.88 			"/>
		</g>
		<polygon class="st1" points="1812.9,-560.37 1827.5,-591.68 1841.03,-560.37 1827.5,-465.25 		"/>
	</g>
	<g>
		<polygon class="st3" points="-127.43,-342.07 -131.41,-339.09 -129.08,-335.22 -100.17,-335.57 		"/>
		<polygon class="st3" points="-128.27,-310.29 -132.25,-313.26 -129.91,-317.14 -101.01,-316.78 		"/>
		<path class="st4" d="M-121.88-357.35l-4.57-0.55c-0.91-0.11-1.81,0.26-2.37,0.98l-3.23,4.11c-0.63,0.81-0.74,1.91-0.26,2.82
			l9.72,18.69c0.52,1,1.62,1.55,2.73,1.38l24.24-3.83c2.32-0.37,3.02-3.37,1.1-4.72l-26.17-18.42
			C-121.05-357.14-121.46-357.3-121.88-357.35z"/>
		<path class="st4" d="M-83.84-332.42l9.13,4.04c2.11,0.93,2.07,3.94-0.07,4.81l-9.11,3.74c-0.43,0.17-0.89,0.23-1.34,0.17
			l-27.72-3.75c-3.01-0.41-3.03-4.75-0.03-5.18l27.7-4.04C-84.79-332.69-84.29-332.62-83.84-332.42z"/>
		<g>
			<path class="st4" d="M-121.88-294.81l-4.57,0.55c-0.91,0.11-1.81-0.26-2.37-0.98l-3.23-4.11c-0.63-0.81-0.74-1.91-0.26-2.82
				l9.72-18.69c0.52-1,1.62-1.55,2.73-1.38l24.24,3.83c2.32,0.37,3.02,3.37,1.1,4.72l-26.17,18.42
				C-121.05-295.02-121.46-294.86-121.88-294.81z"/>
		</g>
		<polygon class="st3" points="-81.14,-328.06 -76.49,-326 -81.14,-324.09 -95.28,-326 		"/>
	</g>
	<rect x="1.57" y="1.48" class="st5" width="8.24" height="8.24"/>
</g>
</svg>
